<?xml version="1.0" standalone="no"?>
<!DOCTYPE svg PUBLIC "-//W3C//DTD SVG 20010904//EN"
 "http://www.w3.org/TR/2001/REC-SVG-20010904/DTD/svg10.dtd">
<svg version="1.0" xmlns="http://www.w3.org/2000/svg"
 width="700.000000pt" height="700.000000pt" viewBox="0 0 700.000000 700.000000"
 preserveAspectRatio="xMidYMid meet">
<metadata>
Created by potrace 1.14, written by Peter Selinger 2001-2017
</metadata>
<g transform="translate(0.000000,700.000000) scale(0.100000,-0.100000)"
fill="#000000" stroke="none">
<path d="M1078 5920 l-1078 -1079 0 -1341 0 -1341 1079 -1079 1080 -1080 1342
0 1341 0 1079 1079 1079 1080 0 1341 0 1342 -1079 1079 -1079 1079 -1343 -1
-1344 0 -1077 -1079z m2546 -645 c143 -13 339 -68 453 -128 23 -12 62 -33 87
-46 112 -60 231 -170 924 -863 397 -397 722 -726 722 -731 0 -5 -328 -336
-728 -735 -759 -758 -803 -798 -974 -886 -199 -101 -376 -146 -592 -150 -334
-6 -627 96 -901 315 -33 26 -377 365 -764 753 l-704 704 709 709 c390 389 736
731 769 759 205 172 513 294 766 303 35 1 65 3 66 5 3 3 86 -1 167 -9z"/>
</g>
</svg>
