<svg width="28" height="28" viewBox="0 0 28 28" fill="none" xmlns="http://www.w3.org/2000/svg">
<g opacity="0.8">
<path d="M25.1286 9.41152C25.115 8.47146 24.9408 7.53885 24.6074 6.65964C24.0241 5.15827 22.8361 3.97109 21.3323 3.38991C20.4628 3.06332 19.5436 2.88822 18.6131 2.86835C17.4165 2.81495 17.0371 2.80005 13.9995 2.80005C10.962 2.80005 10.5726 2.80005 9.3847 2.86835C8.45551 2.88822 7.53628 3.06332 6.6668 3.38991C5.16293 3.97109 3.97377 5.15827 3.39163 6.65964C3.06449 7.52767 2.88785 8.44538 2.87044 9.37302C2.81695 10.5689 2.80078 10.9477 2.80078 13.9802C2.80078 17.0127 2.80078 17.4002 2.87044 18.5873C2.8891 19.5162 3.06449 20.4327 3.39163 21.3032C3.97501 22.8033 5.16293 23.9905 6.66804 24.5717C7.53379 24.9095 8.45303 25.1007 9.38594 25.1305C10.5838 25.1839 10.9632 25.2001 14.0008 25.2001C17.0384 25.2001 17.4277 25.2001 18.6156 25.1305C19.5448 25.1119 20.464 24.9368 21.3348 24.6102C22.8386 24.0278 24.0266 22.8406 24.6099 21.3405C24.9371 20.4712 25.1125 19.5547 25.1311 18.6246C25.1846 17.43 25.2008 17.0512 25.2008 14.0174C25.1983 10.9849 25.1983 10.5999 25.1286 9.41152ZM13.9921 19.7149C10.8152 19.7149 8.24156 17.1456 8.24156 13.974C8.24156 10.8024 10.8152 8.23302 13.9921 8.23302C17.1665 8.23302 19.7426 10.8024 19.7426 13.974C19.7426 17.1456 17.1665 19.7149 13.9921 19.7149ZM19.9715 9.35936C19.2289 9.35936 18.6305 8.7608 18.6305 8.02067C18.6305 7.28055 19.2289 6.68199 19.9715 6.68199C20.7116 6.68199 21.3111 7.28055 21.3111 8.02067C21.3111 8.7608 20.7116 9.35936 19.9715 9.35936Z" fill="#F3F3F3"/>
<path d="M13.9937 17.4789C15.9287 17.4789 17.4972 15.9104 17.4972 13.9754C17.4972 12.0405 15.9287 10.4719 13.9937 10.4719C12.0588 10.4719 10.4902 12.0405 10.4902 13.9754C10.4902 15.9104 12.0588 17.4789 13.9937 17.4789Z" fill="#F3F3F3"/>
</g>
</svg>
