<svg width="28" height="28" viewBox="0 0 28 28" xmlns="http://www.w3.org/2000/svg">
    <g opacity="0.8" fill="inherit">
        <path
            d="M17.0804 4.06023C17.2904 4.06023 17.5004 4.06023 17.9204 4.06023V7.21023C17.7104 7.21023 17.2904 7.21023 16.8704 7.21023C16.4504 7.21023 16.0304 7.21023 15.8204 7.42023C15.6104 7.63023 15.6104 7.84023 15.6104 8.33023C15.6104 8.75023 15.6104 9.03023 15.6104 9.45023H17.9204V12.1102H15.6104V23.6602H12.0404V12.0402H10.1504V9.38023H12.0404V8.47023C12.0404 6.93023 12.2504 5.81023 12.6704 5.32023C13.3004 4.41023 14.5604 3.99023 16.4504 3.99023C16.6604 4.06023 16.8704 4.06023 17.0804 4.06023Z" />
    </g>
</svg>