<svg width="28" height="28" viewBox="0 0 28 28" xmlns="http://www.w3.org/2000/svg">
    <g opacity="0.8" fill="inherit">
        <path fill-rule="evenodd" clip-rule="evenodd"
            d="M21.2094 5.24986C20.0194 5.17986 17.5694 5.10986 13.8594 5.10986H13.3694C9.79937 5.10986 7.4194 5.17986 6.2294 5.31986C4.6194 5.45986 3.49937 5.87986 2.86937 6.43986C2.30937 6.92986 1.88938 7.83986 1.74938 9.02986C1.67938 9.79986 1.60938 11.4099 1.60938 13.8599V14.2099C1.60938 16.5199 1.67937 18.1299 1.81937 18.8999C2.02937 20.0199 2.3794 20.8599 3.0794 21.3499C3.7794 21.9099 4.96938 22.2599 6.64938 22.3999C7.83938 22.4699 10.2894 22.5399 13.9994 22.5399H14.4894C18.0594 22.5399 20.4394 22.4699 21.6294 22.3299C23.2394 22.1899 24.3594 21.7699 24.9894 21.2099C25.5494 20.7199 25.9694 19.8099 26.1094 18.6199C26.1794 17.8499 26.2494 16.2399 26.2494 13.7899V13.4399C26.2494 11.1299 26.1794 9.51986 26.0394 8.74986C25.8294 7.62986 25.4794 6.78986 24.7794 6.29986C24.0794 5.73986 22.8894 5.38986 21.2094 5.24986ZM18.4794 13.8599L10.7794 18.4799V9.23986L18.4794 13.8599Z" />
    </g>
</svg>